<svg xmlns="http://www.w3.org/2000/svg" viewBox="-3506.287 5682 80.358 85.715">
  <defs>
    <style>
      .cls-1 {
        fill: #fff;
      }
    </style>
  </defs>
  <path id="Лакокрасочные_материалы" class="cls-1" d="M90.25,10.13V4.286A4.3,4.3,0,0,0,85.945,0h-61.7a4.3,4.3,0,0,0-4.3,4.286V10H18.5a1.429,1.429,0,1,0,0,2.857h1.435v5.714a4.279,4.279,0,0,0,2.87,4.023v8.834a5.742,5.742,0,0,0,8.61,4.947v6.482a5.74,5.74,0,0,0,11.48,0V32.374a5.026,5.026,0,0,0,7.175-4.517v-5H85.945a4.3,4.3,0,0,0,4.3-4.286V13.06a5.714,5.714,0,0,1,4.3,5.512v5.714a5.9,5.9,0,0,1-4.57,5.741c-1.118.2-19.406,1.806-31.3,2.83a5.725,5.725,0,0,0-5.74,5.7v8.587h-8.61a1.432,1.432,0,0,0-1.408,1.71L44.358,56a1.435,1.435,0,0,0,1.408,1.147H47.2V70h5.74a1.429,1.429,0,1,1,0,2.857H47.2v2.857h5.74a1.429,1.429,0,1,1,0,2.857H47.2a7.175,7.175,0,0,0,14.35,0V57.143h1.435A1.434,1.434,0,0,0,64.392,56l1.435-7.143a1.432,1.432,0,0,0-1.406-1.71h-8.61V38.556A2.864,2.864,0,0,1,58.8,35.709c5.075-.434,30.464-2.62,31.744-2.88a8.7,8.7,0,0,0,6.876-8.543V18.571A8.589,8.589,0,0,0,90.25,10.13Zm-47.021-3.9a1.44,1.44,0,0,1,2.02-.183,1.425,1.425,0,0,1,.184,2.013L38.258,16.63a1.432,1.432,0,0,1-2.2-1.83ZM26.01,14.8l7.175-8.571a1.439,1.439,0,0,1,2.02-.183,1.425,1.425,0,0,1,.184,2.013L28.214,16.63a1.432,1.432,0,0,1-2.2-1.83ZM47.2,27.857a2.152,2.152,0,0,1-4.3,0V25.714a1.435,1.435,0,0,0-2.87,0V42.857a2.87,2.87,0,0,1-5.74,0V27.143a1.435,1.435,0,0,0-2.87,0v4.286a2.87,2.87,0,0,1-5.74,0V22.857H47.2ZM48.3,16.63a1.432,1.432,0,0,1-2.2-1.83l7.175-8.571a1.44,1.44,0,0,1,2.02-.183,1.425,1.425,0,0,1,.184,2.013Zm10.045,0a1.432,1.432,0,0,1-2.2-1.83l7.175-8.571a1.44,1.44,0,0,1,2.02-.183,1.425,1.425,0,0,1,.184,2.013Zm8.941.513a1.428,1.428,0,0,1-1.1-2.343l7.175-8.571a1.44,1.44,0,0,1,2.02-.183,1.425,1.425,0,0,1,.184,2.013L68.392,16.63A1.435,1.435,0,0,1,67.289,17.143ZM84.177,8.059,77,16.63a1.432,1.432,0,0,1-2.2-1.83l7.175-8.571a1.44,1.44,0,0,1,2.02-.183A1.425,1.425,0,0,1,84.177,8.059Z" transform="translate(-3523.354 5682)"/>
</svg>
