<svg xmlns="http://www.w3.org/2000/svg" viewBox="-3859.546 5682 58.573 85.716">
  <defs>
    <style>
      .cls-1 {
        fill: #fff;
      }
    </style>
  </defs>
  <path id="Даерная_фурнитура" class="cls-1" d="M132.925,41.858h-10V4.714A5.731,5.731,0,0,0,117.211-1H85.781a5.731,5.731,0,0,0-5.714,5.714V79a5.731,5.731,0,0,0,5.714,5.715h31.429A5.731,5.731,0,0,0,122.925,79V53.287h10a5.714,5.714,0,0,0,0-11.429ZM120.068,79a2.866,2.866,0,0,1-2.857,2.857H85.781A2.866,2.866,0,0,1,82.924,79h7.143a1.429,1.429,0,1,0,0-2.857H82.924V73.288H87.21a1.429,1.429,0,0,0,0-2.857H82.924V4.714a2.866,2.866,0,0,1,2.857-2.857h31.429a2.866,2.866,0,0,1,2.857,2.857V41.858h-8.731a11.331,11.331,0,0,0-9.841-5.714,11.429,11.429,0,1,0,9.909,17.143h8.663ZM105.782,53.287h2.143a9.233,9.233,0,0,1-6.429,2.857A8.572,8.572,0,1,1,101.5,39a9.233,9.233,0,0,1,6.429,2.857h-2.143a5.714,5.714,0,0,0,0,11.429Zm27.143-2.857H105.782a2.857,2.857,0,0,1,0-5.715h27.144a2.857,2.857,0,0,1,0,5.715Z" transform="translate(-3939.613 5683)"/>
</svg>
