<svg xmlns="http://www.w3.org/2000/svg" viewBox="-3961.753 5682 85.716 85.716">
  <defs>
    <style>
      .cls-1 {
        fill: #fff;
      }
    </style>
  </defs>
  <path id="Обои" class="cls-1" d="M1.428,85.716A1.428,1.428,0,0,1,0,84.288V1.428A1.428,1.428,0,0,1,1.428,0h82.86a1.427,1.427,0,0,1,1.428,1.428V57.144c0,5.607-3.137,10-7.143,10H44.286V84.288a1.428,1.428,0,0,1-1.428,1.428ZM74.287,57.144c0,3.871,1.963,7.143,4.286,7.143s4.286-3.272,4.286-7.143S80.9,50,78.573,50,74.287,53.272,74.287,57.144Zm-41.429,0c0,3.872,1.962,7.143,4.286,7.143H73.529s-.005-.012-.01-.016a9.783,9.783,0,0,1-.851-1.437.308.308,0,0,1-.02-.038A11.518,11.518,0,0,1,72,61.12c0-.01-.006-.019-.01-.029a13.353,13.353,0,0,1-.412-1.879.053.053,0,0,0,0-.017,14.6,14.6,0,0,1,0-4.1.061.061,0,0,0,0-.019,13.239,13.239,0,0,1,.411-1.878.186.186,0,0,0,.01-.029,11.626,11.626,0,0,1,.649-1.676.377.377,0,0,1,.02-.038,9.761,9.761,0,0,1,.851-1.438.14.14,0,0,1,.01-.015H37.144C34.821,50,32.858,53.272,32.858,57.144Zm46.779-9.883c.07.015.141.027.212.044a5.664,5.664,0,0,1,.972.331c.055.026.11.056.164.083a6.434,6.434,0,0,1,.846.5c.038.027.079.05.115.077a7.409,7.409,0,0,1,.826.721c.027.028.059.047.086.076V42.858a1.429,1.429,0,1,1,0-2.857V34.286a1.428,1.428,0,1,1,0-2.857V25.714a1.428,1.428,0,1,1,0-2.857V17.143a1.428,1.428,0,1,1,0-2.857V8.571a1.428,1.428,0,1,1,0-2.857h0V2.857H80a1.429,1.429,0,0,1-2.857,0H71.43a1.429,1.429,0,0,1-2.857,0H62.858a1.429,1.429,0,0,1-2.857,0H54.287a1.429,1.429,0,0,1-2.857,0H45.715a1.429,1.429,0,0,1-1.429,1.428V10a1.428,1.428,0,1,1,0,2.857v5.715a1.428,1.428,0,1,1,0,2.857v5.715a1.429,1.429,0,1,1,0,2.857v5.714a1.429,1.429,0,1,1,0,2.857v8.571h8.572a1.429,1.429,0,1,1,1.428-1.428,1.429,1.429,0,0,1-1.428,1.428H61.43a1.429,1.429,0,1,1,1.428-1.428,1.428,1.428,0,0,1-1.428,1.428H70a1.429,1.429,0,1,1,1.429-1.428A1.429,1.429,0,0,1,70,47.144h8.571A1.429,1.429,0,1,1,80,45.715a1.429,1.429,0,0,1-1.429,1.428A5.35,5.35,0,0,1,79.638,47.261Zm-6.779-5.832a1.429,1.429,0,1,1,1.428,1.429A1.429,1.429,0,0,1,72.859,41.429Zm-8.571,0a1.428,1.428,0,1,1,1.428,1.429A1.428,1.428,0,0,1,64.288,41.429Zm-8.571,0a1.428,1.428,0,1,1,1.428,1.429A1.428,1.428,0,0,1,55.716,41.429Zm-8.572,0a1.429,1.429,0,1,1,1.429,1.429A1.429,1.429,0,0,1,47.144,41.429Zm30-4.286a1.429,1.429,0,1,1,1.428,1.429A1.428,1.428,0,0,1,77.145,37.143Zm-8.571,0A1.429,1.429,0,1,1,70,38.572,1.428,1.428,0,0,1,68.573,37.143Zm-8.571,0a1.428,1.428,0,1,1,1.428,1.429A1.428,1.428,0,0,1,60,37.143Zm-8.572,0a1.429,1.429,0,1,1,1.429,1.429A1.429,1.429,0,0,1,51.429,37.143Zm21.429-4.286a1.429,1.429,0,1,1,1.428,1.428A1.428,1.428,0,0,1,72.859,32.857Zm-8.571,0a1.428,1.428,0,1,1,1.428,1.428A1.428,1.428,0,0,1,64.288,32.857Zm-8.571,0a1.428,1.428,0,1,1,1.428,1.428A1.428,1.428,0,0,1,55.716,32.857Zm-8.572,0a1.429,1.429,0,1,1,1.429,1.428A1.429,1.429,0,0,1,47.144,32.857Zm30-4.286A1.429,1.429,0,1,1,78.573,30,1.428,1.428,0,0,1,77.145,28.572Zm-8.571,0A1.429,1.429,0,1,1,70,30,1.428,1.428,0,0,1,68.573,28.572Zm-8.571,0A1.428,1.428,0,1,1,61.43,30,1.428,1.428,0,0,1,60,28.572Zm-8.572,0A1.429,1.429,0,1,1,52.859,30,1.429,1.429,0,0,1,51.429,28.572Zm21.429-4.286a1.429,1.429,0,1,1,1.428,1.428A1.428,1.428,0,0,1,72.859,24.286Zm-8.571,0a1.428,1.428,0,1,1,1.428,1.428A1.428,1.428,0,0,1,64.288,24.286Zm-8.571,0a1.428,1.428,0,1,1,1.428,1.428A1.428,1.428,0,0,1,55.716,24.286Zm-8.572,0a1.429,1.429,0,1,1,1.429,1.428A1.429,1.429,0,0,1,47.144,24.286Zm30-4.286a1.429,1.429,0,1,1,1.428,1.428A1.429,1.429,0,0,1,77.145,20Zm-8.571,0A1.429,1.429,0,1,1,70,21.429,1.429,1.429,0,0,1,68.573,20ZM60,20a1.428,1.428,0,1,1,1.428,1.428A1.429,1.429,0,0,1,60,20Zm-8.572,0a1.429,1.429,0,1,1,1.429,1.428A1.429,1.429,0,0,1,51.429,20Zm21.429-4.286a1.429,1.429,0,1,1,1.428,1.428A1.429,1.429,0,0,1,72.859,15.715Zm-8.571,0a1.428,1.428,0,1,1,1.428,1.428A1.429,1.429,0,0,1,64.288,15.715Zm-8.571,0a1.428,1.428,0,1,1,1.428,1.428A1.429,1.429,0,0,1,55.716,15.715Zm-8.572,0a1.429,1.429,0,1,1,1.429,1.428A1.429,1.429,0,0,1,47.144,15.715Zm30-4.286a1.429,1.429,0,1,1,1.428,1.428A1.429,1.429,0,0,1,77.145,11.429Zm-8.571,0A1.429,1.429,0,1,1,70,12.857,1.429,1.429,0,0,1,68.573,11.429Zm-8.571,0a1.428,1.428,0,1,1,1.428,1.428A1.429,1.429,0,0,1,60,11.429Zm-8.572,0a1.429,1.429,0,1,1,1.429,1.428A1.429,1.429,0,0,1,51.429,11.429ZM72.859,7.142a1.429,1.429,0,1,1,1.428,1.429A1.429,1.429,0,0,1,72.859,7.142Zm-8.571,0a1.428,1.428,0,1,1,1.428,1.429A1.428,1.428,0,0,1,64.288,7.142Zm-8.571,0a1.428,1.428,0,1,1,1.428,1.429A1.428,1.428,0,0,1,55.716,7.142Zm-8.572,0a1.429,1.429,0,1,1,1.429,1.429A1.429,1.429,0,0,1,47.144,7.142Z" transform="translate(-3961.753 5682)"/>
</svg>
