<svg xmlns="http://www.w3.org/2000/svg" viewBox="-3375.057 5506 60.061 85.72">
  <defs>
    <style>
      .cls-1 {
        fill: #2ecc71;
      }
    </style>
  </defs>
  <path id="Пластиковые_изделия" class="cls-1" d="M3067.346-1335.28v-68.576a11.442,11.442,0,0,0-11.429-11.429H3013v-4.287a1.429,1.429,0,0,1,1.428-1.428h41.488a17.163,17.163,0,0,1,17.144,17.144v67.147a1.43,1.43,0,0,1-1.429,1.429Zm-7.143,0a1.43,1.43,0,0,1-1.428-1.429v-67.147a2.861,2.861,0,0,0-2.857-2.857h-41.431a1.429,1.429,0,0,1-1.428-1.428v-4.286h42.859a8.579,8.579,0,0,1,8.572,8.572v68.576Z" transform="translate(-6388.058 6927)"/>
</svg>
